Coordinates
version=1
nRows=17
nColumns=24
inDegrees=yes

Units are S.I. units (second, meters, Newtons, ...)
Angles are in degrees.

endheader
time	pelvis_tilt	pelvis_list	pelvis_rotation	pelvis_tx	pelvis_ty	pelvis_tz	hip_flexion_r	hip_adduction_r	hip_rotation_r	knee_angle_r	ankle_angle_r	subtalar_angle_r	mtp_angle_r	hip_flexion_l	hip_adduction_l	hip_rotation_l	knee_angle_l	ankle_angle_l	subtalar_angle_l	mtp_angle_l	lumbar_extension	lumbar_bending	lumbar_rotation
      1.22050000	      1.21613960	      7.36776774	     -5.85655096	      0.22675685	      1.00955502	      0.27674898	     14.49509773	     -9.95754182	     -0.46137335	    -67.71407984	     -3.01348737	     -9.35666824	      5.35545199	      5.07753523	     12.52381313	      4.77885974	    -11.03902001	      4.56014053	    -15.26038315	     -1.73375370	    -15.15283551	     -2.36464241	     -0.43661646
      1.22466667	      1.19854898	      7.21583971	     -5.99922042	      0.23179811	      1.01023979	      0.27675264	     15.04140659	     -9.68072578	     -0.33757571	    -67.36723047	     -2.32532392	     -9.52971914	      5.34342412	      4.59192070	     12.38579627	      4.73818063	    -10.66766913	      4.59462763	    -15.26054696	     -1.74623793	    -15.15261579	     -2.13570677	     -0.56385115
      1.22883333	      1.24460131	      7.05870398	     -6.14052764	      0.23683533	      1.01100247	      0.27674008	     15.49737378	     -9.40750057	     -0.22551473	    -66.95293796	     -1.62823148	     -9.62390349	      5.28006887	      4.01664820	     12.25387618	      4.74249299	    -10.25262637	      4.59272666	    -15.29740821	     -1.78945850	    -15.23296079	     -1.87044287	     -0.82081143
      1.23300000	      1.20784066	      6.89890664	     -6.26800789	      0.24185438	      1.01163460	      0.27675162	     16.02857188	     -9.10744886	     -0.11009807	    -66.48434860	     -0.93445895	     -9.82121403	      5.25564713	      3.55543530	     12.10534352	      4.69610327	     -9.89054849	      4.61207008	    -15.28981807	     -1.81035248	    -15.22267718	     -1.64073828	     -0.89943886
      1.23716667	      1.19441932	      6.71630482	     -6.39116703	      0.24689674	      1.01231747	      0.27677702	     16.50154629	     -8.78072303	     -0.00566351	    -65.93361349	     -0.24916896	     -9.98688902	      5.22970255	      3.05560498	     11.93383555	      4.64463749	     -9.50974764	      4.63169735	    -15.27089003	     -1.83248198	    -15.22712584	     -1.38081854	     -0.99804082
      1.24133333	      1.22767962	      6.54311132	     -6.51525518	      0.25193604	      1.01301688	      0.27678598	     16.90947272	     -8.47285111	      0.09865369	    -65.32765062	      0.42120205	    -10.08341868	      5.14626746	      2.48899193	     11.78150106	      4.62978200	     -9.09123657	      4.65066330	    -15.25536318	     -1.88888552	    -15.29480151	     -1.11531912	     -1.20487145
      1.24550000	      1.18592635	      6.36800612	     -6.62118024	      0.25694371	      1.01359451	      0.27680563	     17.38210631	     -8.14264115	      0.20304478	    -64.67127414	      1.11664682	    -10.25493574	      5.11287968	      2.03072833	     11.61598847	      4.57419596	     -8.73024929	      4.66143811	    -15.22684616	     -1.91580227	    -15.28189127	     -0.86754826	     -1.28079754
      1.24966667	      1.21812798	      6.17896218	     -6.73456384	      0.26197370	      1.01426989	      0.27684012	     17.74524843	     -7.80713871	      0.30664485	    -63.93590592	      1.76243525	    -10.34623017	      5.02305589	      1.46561802	     11.44461758	      4.54423814	     -8.31765310	      4.68254703	    -15.18341169	     -1.97512355	    -15.35189600	     -0.59458397	     -1.45758423
      1.25383333	      1.17144377	      6.01116145	     -6.82958944	      0.26697821	      1.01478559	      0.27686502	     18.18734151	     -7.48112862	      0.41014921	    -63.16943980	      2.44257359	    -10.49374117	      4.98243823	      1.01102462	     11.28649695	      4.48430520	     -7.95186358	      4.68564890	    -15.14290182	     -2.00571632	    -15.33544544	     -0.35003165	     -1.53696615
      1.25800000	      1.21380726	      5.81184427	     -6.92774786	      0.27201409	      1.01542996	      0.27690201	     18.49274825	     -7.13333243	      0.50608017	    -62.31257376	      3.04576343	    -10.57890491	      4.87132819	      0.43059468	     11.10595482	      4.45344559	     -7.53641124	      4.71009875	    -15.08104665	     -2.07528012	    -15.41641777	     -0.07192300	     -1.71959011
      1.26216667	      1.17693255	      5.63368270	     -6.98031055	      0.27702661	      1.01592469	      0.27689208	     18.86966110	     -6.80811244	      0.56986979	    -61.42343943	      3.69954255	    -10.64449554	      3.04976603	     -0.04771365	     10.94038709	      4.47092349	     -7.15706691	      4.69917620	    -15.06505297	     -3.09601863	    -15.39408858	      0.21913176	     -2.02491505
      1.26633333	      1.20469436	      5.44873671	     -7.08844937	      0.28204558	      1.01646211	      0.27697753	     19.16587471	     -6.46203898	      0.69530860	    -60.47449302	      4.25885507	    -10.75424326	      3.02087673	     -0.59983049	     10.77122673	      4.37725555	     -6.75954172	      4.73634977	    -14.97811750	     -3.11127984	    -15.47672095	      0.45076975	     -2.01321516
      1.27050000	      1.17937477	      5.28148128	     -7.16336528	      0.28706462	      1.01689030	      0.27702422	     19.50115175	     -6.13885663	      0.79564176	    -59.48058273	      4.78913044	    -10.85211690	      2.98614011	     -1.08884258	     10.61613720	      4.31923846	     -6.37509752	      4.74685810	    -14.90039264	     -3.12936595	    -15.48540973	      0.68790546	     -2.11345392
      1.27466667	      1.18086725	      5.11290000	     -7.23014918	      0.29208306	      1.01730203	      0.27706752	     19.78772653	     -5.82138216	      0.89046302	    -58.43775769	      5.28082581	    -10.94784099	      2.93885108	     -1.60894146	     10.46303375	      4.27154826	     -5.98928399	      4.75490422	    -14.82005306	     -3.15147873	    -15.52528782	      0.93030180	     -2.25012084
      1.27883333	      1.14965717	      4.95055754	     -7.28515578	      0.29710243	      1.01766425	      0.27712108	     20.08617043	     -5.50554579	      0.98483258	    -57.33670826	      5.74276741	    -11.03551162	      2.90710992	     -2.08235111	     10.31146590	      4.20874773	     -5.62713233	      4.73667452	    -14.75120772	     -3.16787449	    -15.52379999	      1.15814929	     -2.35245079
      1.28300000	      1.16764837	      4.78084068	     -7.33766192	      0.30213567	      1.01804292	      0.27716409	     20.30945591	     -5.19616621	      1.06910468	    -56.18349119	      6.13375979	    -11.13108891	      2.86741706	     -2.62357578	     10.15923865	      4.15968351	     -5.23806139	      4.72998464	    -14.67015177	     -3.18585836	    -15.58194521	      1.40228539	     -2.48884183
      1.28716667	      1.17428689	      4.63087992	     -7.38567948	      0.30717182	      1.01835068	      0.27721682	     20.53392970	     -4.90832094	      1.15750040	    -54.99268960	      6.45819320	    -11.24204404	      2.81670434	     -3.15393974	     10.02631961	      4.11981250	     -4.84297053	      4.72803936	    -14.58239106	     -3.20620354	    -15.62060026	      1.62193667	     -2.64110985
